<?xml version="1.0" encoding="UTF-8" standalone="no"?>
<svg id="svg" xmlns:rdf="http://www.w3.org/1999/02/22-rdf-syntax-ns#" xmlns="http://www.w3.org/2000/svg" preserveAspectRation="none" viewBox="0 0 32 26" display="block" height="100%" width="100%" version="1.1" xmlns:cc="http://creativecommons.org/ns#" xmlns:dc="http://purl.org/dc/elements/1.1/">
 <g id="svgg" fill-rule="evenodd" transform="matrix(.081423 0 0 .084327 -.58169 -.27169)">
  <path id="path0" d="m186.4 3.399c-0.33 0.076-2.94 0.428-5.8 0.784-7.46 0.927-17.95 3.071-23.8 4.865-5.94 1.819-7.62 2.358-9.6 3.068-2.38 0.857-6.17 2.375-8.4 3.369-0.77 0.343-2.12 0.944-3 1.336-2.31 1.03-8.5 4.144-10.6 5.335-0.99 0.561-2.52 1.41-3.4 1.887-0.88 0.476-2.35 1.382-3.27 2.012s-1.84 1.145-2.04 1.145-0.69 0.36-1.09 0.8-0.88 0.8-1.07 0.8c-0.7 0-10.91 7.653-14.73 11.042-0.77 0.683-2.48 2.193-3.8 3.355-3.627 3.192-9.983 9.766-13.34 13.798-1.646 1.977-3.188 3.802-3.426 4.056-0.239 0.253-0.794 0.96-1.234 1.57-0.693 0.961-2.314 3.11-3.302 4.379-0.42 0.539-3.396 4.917-3.903 5.742-0.392 0.637-1.247 1.991-2.561 4.055-14.097 22.145-22.444 51.783-22.436 79.663 0.002 8.14 0.639 7.17-5.198 7.93-1.87 0.25-5.65 0.79-8.4 1.2-7.768 1.17-15.839 2.32-19.92 2.85-2.973 0.38-3.836 0.65-4.3 1.31-0.748 1.07-0.887 100.53-0.143 101.92 0.509 0.95 2.729 0.86 11.363-0.46 2.64-0.4 7.5-1.12 10.8-1.59s8.34-1.2 11.2-1.61 7.9-1.13 11.2-1.6 8.34-1.2 11.2-1.62c4.749-0.69 13.223-1.89 19.8-2.81l2.6-0.37 3.2 3.31c3.472 3.6 8.226 8.06 10.954 10.28 0.946 0.77 1.996 1.66 2.336 1.99 1.76 1.65 14.54 10.81 15.09 10.81 0.1 0 0.95 0.52 1.9 1.16 2.4 1.61 4.2 2.62 9.72 5.45 4.11 2.11 6.95 3.41 14.89 6.81 0.71 0.31 3.68 1.35 6.6 2.32 36.07 11.95 74 10.64 108.71-3.76 2.5-1.04 8.6-3.82 9.8-4.47 0.44-0.24 1.07-0.56 1.4-0.71 2.98-1.37 9.74-5.27 11.08-6.39 0.27-0.23 0.6-0.41 0.72-0.41 0.36 0 6.1-3.85 8.65-5.8 0.57-0.44 1.45-1.07 1.95-1.4 0.49-0.33 1.1-0.78 1.35-1s1.35-1.11 2.45-1.98c1.1-0.86 2.27-1.81 2.6-2.1 4.71-4.17 6.31-5.66 9.39-8.74 6.57-6.57 13.82-15.06 17.22-20.18 0.65-0.99 1.34-1.98 1.51-2.2 0.49-0.6 5.48-8.28 5.48-8.42 0-0.07 1.06-1.98 2.34-4.25 1.29-2.27 2.48-4.53 2.63-5.03 0.5-1.58-1.22-1.24 27.23-5.29 3.3-0.47 8.18-1.2 10.85-1.63s5.35-0.78 5.96-0.78 3.16-0.38 5.66-0.85l4.53-0.84-0.1-51.45c-0.1-51.09-0.1-51.45-0.9-51.6-0.8-0.16-2.71 0.07-13.2 1.58-12.9 1.86-16.29 2.35-21.88 3.21-3.24 0.5-5.98 0.82-6.1 0.7-0.11-0.11-0.56-1.54-0.99-3.18-1.2-4.51-2.24-7.88-3.41-10.97-0.58-1.54-1.21-3.27-1.4-3.85-0.18-0.58-0.6-1.66-0.92-2.401-0.33-0.742-1.09-2.519-1.7-3.949-1.29-3.03-5.48-11.479-6.83-13.8-3.23-5.521-2.82-4.852-6.33-10.197-1.52-2.312-2.92-4.263-3.1-4.336-0.19-0.074-0.34-0.303-0.34-0.509 0-0.308-3.66-5.274-4.4-5.958-0.11-0.11-1.02-1.19-2-2.4-6.82-8.379-19.74-20.55-27.19-25.6-0.48-0.33-1.94-1.365-3.24-2.3-1.29-0.935-2.54-1.7-2.76-1.7-0.23 0-0.41-0.15-0.41-0.332 0-0.183-0.49-0.588-1.1-0.9-0.6-0.313-1.82-1.043-2.7-1.624-2.09-1.379-6.21-3.691-11.78-6.616-3.74-1.961-12.3-5.644-16.82-7.234-1.21-0.426-3.1-1.093-4.2-1.481s-2.63-0.846-3.4-1.017c-0.77-0.172-2.21-0.578-3.2-0.904-3.72-1.225-13.99-3.348-22-4.549-4.18-0.628-31.08-1.23-33.2-0.744m28.6 10.185c20.89 2.487 38.4 8.108 55.74 17.888 2.05 1.159 3.81 2.107 3.91 2.107s0.4 0.185 0.67 0.411c0.43 0.367 7 4.778 8.62 5.789 0.36 0.22 0.83 0.588 1.05 0.818 0.23 0.229 1.84 1.487 3.58 2.794 8.49 6.368 16.57 14.415 24.5 24.388 5.08 6.397 4.26 5.273 7.33 10.008 5.04 7.768 9.01 14.973 11.57 20.992 0.71 1.651 1.44 3.361 1.63 3.801 1.52 3.4 4.28 11.5 5.57 16.3l0.73 2.7h-1c-0.55 0-3.18 0.35-5.85 0.78-2.67 0.42-7.55 1.16-10.85 1.62s-7.47 1.07-9.26 1.34l-3.26 0.49-0.48-1.61c-0.25-0.89-0.81-2.52-1.23-3.63-0.42-1.1-0.77-2.22-0.77-2.49 0-0.26-0.38-1.34-0.84-2.39-0.47-1.05-1.08-2.45-1.36-3.11-1.21-2.85-5.6-11.59-6.46-12.856-0.52-0.759-0.94-1.478-0.94-1.597 0-1.64-10.53-15.031-16.45-20.919-6.73-6.696-16.54-14.832-17.88-14.832-0.2 0-0.59-0.266-0.86-0.592-0.27-0.325-0.96-0.832-1.55-1.126-1.57-0.797-2.98-1.624-3.65-2.15-0.78-0.604-9.59-5.101-11.07-5.65-0.62-0.23-2.66-1.063-4.52-1.85-1.86-0.788-3.57-1.432-3.79-1.432-0.23 0-1.31-0.343-2.42-0.763-2.05-0.779-5.96-1.879-10.6-2.981-16.36-3.88-39.9-3.294-55.11 1.374-1.38 0.424-2.75 0.77-3.05 0.77-0.29 0-1.42 0.337-2.49 0.748-1.08 0.412-3.03 1.149-4.35 1.637-5.88 2.175-15.96 6.949-17.43 8.256-0.35 0.308-0.77 0.559-0.92 0.559-0.25 0-7.71 4.797-8.85 5.692-8.48 6.635-14.87 12.536-19.05 17.593-0.96 1.163-1.95 2.295-2.18 2.515-1.09 0.997-5.98 7.934-9.6 13.6-1.21 1.894-5.177 9.634-6.558 12.804-0.384 0.88-1.084 2.46-1.557 3.51-0.472 1.05-0.859 2.14-0.859 2.42s-0.36 1.26-0.8 2.17-0.8 1.88-0.8 2.15-0.345 1.58-0.767 2.92c-2.771 8.77-4.865 22.39-4.838 31.48 0.006 2.04-0.384 2.33-3.171 2.34-0.758 0-3.548 0.35-6.2 0.77-7.908 1.27-15.859 2.41-18.524 2.67l-2.5 0.25 0.018-4.14c0.1-21.06 4.762-42.72 12.909-59.945 0.572-1.21 1.494-3.19 2.048-4.4 1.012-2.213 3.378-6.598 4.962-9.2 0.469-0.77 1.219-2.03 1.667-2.8 1.203-2.068 1.652-2.756 3.306-5.069 0.825-1.153 1.5-2.195 1.5-2.314s0.277-0.532 0.616-0.917 2.616-3.22 5.062-6.3c6.288-7.92 10.725-12.529 18.926-19.656 2.66-2.319 11.26-8.944 11.6-8.944 0.08 0 0.99-0.585 2.01-1.3s2.16-1.483 2.52-1.707c9.61-5.88 18.87-10.462 27.67-13.694 6.55-2.407 17.9-5.694 19.69-5.704 0.5-0.002 1.9-0.273 3.11-0.602 1.21-0.328 3.82-0.785 5.8-1.015s5.49-0.659 7.8-0.953c6.75-0.861 20.59-0.774 28.6 0.18m-15.89 10.392c-0.81 1.415-1.09 1.597-2.41 1.6-1.82 0.004-1.97 0.704-0.48 2.19 0.9 0.904 0.99 1.235 0.75 2.819-0.3 2.016-0.13 2.119 2.04 1.214 1.21-0.506 1.56-0.506 2.77 0 2.01 0.837 2.14 0.761 1.93-1.12-0.16-1.496-0.03-1.854 1.08-2.985 1.47-1.485 1.3-2.115-0.56-2.115-1.39 0-2.35-0.788-2.81-2.3-0.42-1.353-1.29-1.088-2.31 0.697m-27.48 2.103c-0.19 0.495-0.41 1.249-0.49 1.675-0.09 0.477-0.64 0.902-1.43 1.106-2.01 0.519-1.55 3.119 0.55 3.119 0.36 0 0.53 0.572 0.53 1.8 0 2.099 0.56 2.313 2.25 0.86 0.96-0.828 1.27-0.893 2.63-0.547 1.95 0.494 2.16 0.268 1.58-1.684-0.42-1.38-0.38-1.755 0.33-3.015 1.05-1.873 1.08-1.814-0.92-1.814-1.39 0-1.94-0.23-2.87-1.2-1.38-1.437-1.71-1.483-2.16-0.3m55.36 0.538c-1.05 1.367-1.19 1.425-2.85 1.176-2.02-0.304-2.28 0.208-0.95 1.895 0.93 1.183 0.97 1.57 0.32 3.353-0.6 1.672-0.35 1.896 1.52 1.377 1.21-0.334 1.65-0.3 2.17 0.171 0.36 0.325 0.86 0.59 1.12 0.59s0.47 0.18 0.47 0.4c0 1.445 1.13 0.111 1.36-1.6 0.17-1.23 0.47-2 0.78-2 0.29 0 0.92-0.426 1.41-0.947l0.89-0.946-1.75-0.821c-1.41-0.663-1.84-1.132-2.28-2.453-0.66-1.995-0.83-2.01-2.21-0.195m-81.95 7.862c-0.14 0.495-0.25 1.311-0.25 1.813 0 0.617-0.46 1.182-1.4 1.74-1.81 1.065-1.77 1.592 0.2 2.418 1.61 0.677 1.73 0.834 2.17 2.829 0.32 1.465 1.01 1.371 2.23-0.3 0.86-1.193 1.22-1.379 2.7-1.389 1.94-0.013 1.99-0.126 0.89-1.922-0.74-1.216-0.75-1.415-0.2-2.749 0.81-1.933 0.87-1.867-1.4-1.649-1.69 0.163-2.18 0.046-3.1-0.749-1.35-1.165-1.54-1.169-1.84-0.042m108.65 0.568c-1.19 0.945-1.44 0.995-2.99 0.602-2.01-0.51-2.19-0.397-1.58 0.947 0.68 1.504 0.57 2.926-0.34 4.074-1.16 1.485-1.01 1.709 1.18 1.709 1.73 0 2.07 0.144 2.82 1.2 1.13 1.583 1.43 1.52 2.32-0.5 0.57-1.281 1.12-1.842 2.23-2.278 1.7-0.667 1.69-1.11-0.06-2.222-0.97-0.616-1.26-1.092-1.27-2.067-0.03-2.698-0.44-2.954-2.31-1.465m-133.09 14.276c0.23 1.565 0.13 1.888-0.98 3.153-1.49 1.699-1.52 1.903-0.26 1.903 1.73 0 2.89 0.701 3.58 2.167 0.79 1.654 1.31 1.805 1.84 0.533 0.71-1.687 1.54-2.368 3.17-2.587 1.95-0.261 1.94-0.182 0.42-2.072-1.07-1.33-1.18-1.712-0.95-3.176 0.3-1.898 0.33-1.884-1.83-1.022-1.47 0.592-1.73 0.592-3.21 0-2.14-0.854-2.08-0.891-1.78 1.101m152.71 0.756c0.19 1.472 0.07 1.885-0.95 3.085-1.52 1.798-1.5 1.875 0.64 2.195 1.56 0.234 1.88 0.452 2.36 1.596 0.82 1.969 1.3 2.021 2.31 0.255 0.74-1.285 1.21-1.643 2.42-1.847 1.99-0.336 2.16-0.76 0.86-2.066-0.92-0.919-1.08-1.389-1.01-3.004 0.1-2.083-0.08-2.214-1.8-1.316-1.43 0.742-2.13 0.74-3.12-0.011-1.45-1.094-1.96-0.762-1.71 1.113m-56.12 1.903c7.99 1.496 18.01 4.343 22.68 6.442 0.92 0.415 1.79 0.755 1.93 0.755 0.52 0 10.65 5.213 12.79 6.582 1.22 0.78 2.39 1.418 2.61 1.418 0.21 0 0.39 0.141 0.39 0.314 0 0.172 0.58 0.656 1.3 1.074 2.3 1.348 9.84 7.082 10.06 7.656 0.12 0.306 0.41 0.556 0.65 0.556 1.19 0 13.81 13.71 16.99 18.462 0.22 0.329 1.3 1.935 2.39 3.568 1.1 1.635 2.2 3.335 2.44 3.775s0.86 1.52 1.37 2.4c1.29 2.24 4.51 8.8 5.49 11.2 2.54 6.21 3.89 10.15 3.58 10.46-0.27 0.26-4.3 0.89-24.27 3.74-11.18 1.59-17.05 2.44-22 3.2-2.75 0.41-5.86 0.83-6.9 0.92l-1.9 0.18v-6.75-6.75h-1.43-1.43l0.13-11.2c0.15-12.846 0.36-12.324-3.44-8.62-1.2 1.17-2.76 2.42-3.47 2.77-1.66 0.83-2.01 0.82-0.75-0.01 4.86-3.26 7.59-8.492 7.59-14.601 0-6.576-1.95-6.566-7.18 0.036-2.08 2.625-3.93 4.674-4.13 4.555-0.56-0.349-5.59-1.335-6.8-1.335-0.84 0-1.22-0.272-1.56-1.1-1.03-2.542-1.67-3.995-2.44-5.58l-0.81-1.68 2.19-2.72c4-4.969 5.13-6.574 5.13-7.322 0-4.226-9.66-1.448-14.73 4.234-3.92 4.4-5.46 12.901-3.13 17.295l0.71 1.326-2.26 2.674c-1.25 1.468-2.65 3.118-3.12 3.678-0.47 0.54-2.19 2.62-3.82 4.6s-3.6 4.26-4.36 5.07c-0.99 1.03-1.32 1.68-1.12 2.19 0.15 0.39 0.18 0.63 0.08 0.52-0.11-0.1-3.88-3.83-8.38-8.28-7.9-7.828-9.07-8.794-9.07-7.5 0 0.32-0.2 0.6-0.45 0.6s-0.35 0.35-0.24 0.8c0.14 0.52 0.02 0.8-0.35 0.8-0.61 0-0.78-1.02-0.23-1.36 0.18-0.12 0.56-1.252 0.84-2.527 0.29-1.275 0.66-2.498 0.83-2.718s0.54-1.48 0.82-2.8 0.64-2.58 0.8-2.8 0.52-1.48 0.81-2.8c0.28-1.32 0.64-2.49 0.78-2.6 0.15-0.11 0.49-1.19 0.76-2.4 0.28-1.21 0.74-2.74 1.03-3.4s0.66-1.92 0.82-2.8 0.41-1.69 0.55-1.8c2.5-1.908 4.2-12 2.03-12-0.42 0-0.87-0.18-1-0.4-1.02-1.651-4.66 2.035-4.61 4.667 0 0.256-0.16 0.526-0.38 0.6-0.21 0.073-0.56 1.989-0.77 4.258-0.21 2.268-0.55 4.338-0.76 4.6-0.21 0.261-0.59 1.465-0.86 2.675-0.26 1.21-0.64 2.56-0.84 3-0.19 0.44-0.62 1.79-0.95 3s-0.98 3.46-1.45 5-1.17 3.919-1.54 5.288c-0.76 2.756-1.24 3.562-1.24 2.063 0-0.738-1.67-2.635-6.72-7.656l-6.71-6.675 0.57-1.11c1.77-3.426 4.97-5.791 8.56-6.321 2.74-0.405 3.35-3.067 0.81-3.601-0.61-0.13-1.42-0.405-1.81-0.612-0.88-0.477-6.18-0.494-6.47-0.021-0.12 0.195-0.9 0.476-1.73 0.625-1.65 0.296-4.82 1.823-6.7 3.226-0.66 0.492-1.85 1.193-2.64 1.558-0.79 0.366-1.95 1.386-2.6 2.269-0.64 0.882-1.93 2.006-2.87 2.498-2.5 1.303-7.63 5.912-7.66 6.875-0.02 0.518 1.69 2.522 4.78 5.6l4.8 4.794 2.2-2.2c2.84-2.85 4.99-5.713 4.99-6.649 0-0.488 2.03 1.287 5.96 5.211 4.72 4.709 6.13 5.903 6.78 5.733 0.76-0.2 0.78-0.15 0.24 0.68-0.32 0.49-0.48 1-0.34 1.13 0.13 0.13-0.23 1.11-0.79 2.17-0.57 1.06-1.23 2.82-1.46 3.91-0.24 1.09-0.58 2.17-0.77 2.4-0.18 0.23-0.55 1.5-0.82 2.82s-0.63 2.58-0.81 2.8c-0.66 0.82-0.92 3.4-0.34 3.39 2.04-0.02 3.85-2.77 4.47-6.79 0.56-3.65 2.28-6.03 3.62-5.02 0.8 0.61 0.9 0.1-2 10.68l-0.62 2.26-2.06 0.15c-1.51 0.11-2.2-0.01-2.56-0.46-0.45-0.55-0.57-0.53-1.07 0.12-0.38 0.49-0.85 0.65-1.37 0.49-1.38-0.44-1.36 0.53 0.02 1.17 1.02 0.48 1.09 0.57 0.32 0.41-0.55-0.1-1.23-0.2-1.5-0.2-0.28 0-0.5-0.26-0.5-0.56 0-0.31-0.27-0.66-0.6-0.79-0.5-0.19-0.6-1.38-0.6-7.23v-6.99l2.89-0.12 2.9-0.11 0.8-2.4c0.44-1.32 0.94-2.46 1.1-2.54 1.12-0.48-8.17-10.865-9.72-10.865-0.37 0-1.68 1.215-2.9 2.7s-2.86 3.32-3.64 4.078l-1.43 1.379v10.918 10.93h-1.4-1.4v14.13 14.14l-3.5 0.48c-3.42 0.47-8.33 1.17-20.1 2.86-3.19 0.46-8.32 1.19-11.4 1.63s-7.85 1.15-10.602 1.58c-7.156 1.12-6.519 1.4-6.211-2.72 0.945-12.68 2.888-22.25 6.597-32.5 0.278-0.78 0.786-2.2 1.126-3.17 4.07-11.54 16.76-29.894 26.54-38.406 1.62-1.413 3.34-2.943 3.83-3.4 1.56-1.464 2.21-1.992 4.89-3.925 6.45-4.656 10.71-7.281 16.23-9.996 1.32-0.65 2.85-1.415 3.4-1.7 1.85-0.956 9.44-3.796 13.2-4.934 14.69-4.454 34.82-5.814 48.4-3.271m-112.29 13.698c-0.5 0.239-0.9 0.567-0.9 0.73 0 0.619-1.34 0.771-2.85 0.321-1.962-0.588-2.113-0.421-1.323 1.469 0.603 1.453 0.593 1.607-0.195 3.016-1.205 2.144-1.094 2.376 1.138 2.376 1.73 0 2.09 0.151 2.95 1.253 1.18 1.506 1.69 1.297 2.03-0.829 0.23-1.446 0.4-1.634 1.83-2.02 2.2-0.591 2.26-0.946 0.42-2.402-1.38-1.094-1.6-1.486-1.6-2.836 0-1.674-0.11-1.75-1.5-1.078m189.36 0.59c-0.14 0.14-0.26 0.928-0.26 1.749 0 1.283-0.2 1.61-1.4 2.32-1.81 1.069-1.77 1.765 0.17 2.637 1.24 0.562 1.61 0.977 1.81 2.046 0.37 1.965 1 2.099 2.4 0.509 1.11-1.265 1.38-1.382 2.92-1.226 1.95 0.196 1.96 0.17 0.94-1.847-0.66-1.285-0.71-1.743-0.32-3.171 0.54-2.053 0.36-2.264-1.54-1.74-1.24 0.344-1.68 0.292-2.54-0.305-1.61-1.116-1.91-1.247-2.18-0.972m-60.26 13.522v3.4h-4.8c-2.64 0-4.8 0.146-4.8 0.325 0 0.305 1.26 3.199 1.93 4.437 0.4 0.727 3.42 1.624 5.5 1.632 1.49 0.005 1.77-0.176 3.31-2.094 5.18-6.478 5.42-6.7 7.33-6.7h1.53v-2.2-2.2h-5-5v3.4m-66.8 3.799c0 0.814 5.83 6.801 6.62 6.801 0.54 0 2.19-4.617 2.18-6.1v-1.1h-4.4c-2.66 0-4.4 0.158-4.4 0.399m18.08 0.106c-0.23 0.278-0.63 1.403-0.88 2.5-0.26 1.097-0.62 2.355-0.8 2.795-0.69 1.652-1.2 3.55-1.2 4.46 0 0.517-0.18 0.94-0.4 0.94-1.24 0 0.22 1.922 5.37 7.052l5.76 5.75h3.09c3.56 0 2.78 0.59 8.58-6.42 2.09-2.519 4.06-4.785 4.38-5.034 0.5-0.389 0.5-0.725 0.04-2.4-0.29-1.071-0.61-3.793-0.7-6.048l-0.17-4.1h-11.33c-8.63 0-11.42 0.12-11.74 0.505m-97.806 4.095c-0.976 1.224-1.342 1.4-2.9 1.4-2.037 0-2.071 0.074-0.98 2.111 0.745 1.39 0.76 1.604 0.2 2.943-0.812 1.945-0.859 1.888 1.352 1.626 1.66-0.197 2.155-0.084 3.278 0.744 1.789 1.32 1.967 1.251 1.967-0.762 0-1.757 0.59-2.653 2.1-3.189 1.176-0.417 0.784-1.313-0.909-2.077-1.115-0.503-1.678-1.043-1.837-1.761-0.651-2.949-0.719-2.98-2.271-1.035m223.16 0.833c-0.13 0.348-0.24 0.988-0.24 1.422 0 0.551-0.54 1.029-1.78 1.579-1.95 0.862-2.04 1.496-0.35 2.401 1.1 0.589 1.73 1.829 1.73 3.391 0 1.21 0.27 1.215 1.99 0.037 1.19-0.813 1.57-0.886 2.9-0.548 1.96 0.496 2.18 0.248 1.43-1.645-0.57-1.458-0.55-1.625 0.33-3.204l0.94-1.666h-1.82c-1.53 0-1.98-0.19-2.83-1.2-1.12-1.329-1.93-1.529-2.3-0.567m-137.27 11.12c-0.14 0.579-0.41 1.049-0.6 1.049s-0.26-0.27-0.16-0.6c0.1-0.332 0.28-0.898 0.4-1.259 0.33-1.052 0.65-0.343 0.36 0.81m8.65 7.979c-0.23 0.24-0.43 0.98-0.44 1.65-0.02 1.23-0.78 4.48-1.23 5.22-1.04 1.72-0.8 2.72 1.11 4.66l1.91 1.94h-2.89c-2.57 0-3.52-0.36-2.55-0.96 0.18-0.11 0.57-1.25 0.87-2.52 0.29-1.28 0.67-2.5 0.83-2.72 0.48-0.65 1.58-6.5 1.34-7.12-0.12-0.32 0.06-0.69 0.4-0.82 0.4-0.15 0.65-0.8 0.7-1.75 0.07-1.49 0.07-1.49 0.22 0.24 0.09 0.97-0.03 1.95-0.27 2.18m51.34-1.57c-0.12 0.31-0.02 0.68 0.21 0.82 0.28 0.17 0.43 2.73 0.43 7.24v6.98h-10.8c-5.94 0-10.8-0.06-10.8-0.14s0.31-0.52 0.7-0.98c0.38-0.46 1.96-2.58 3.5-4.7s3.57-4.87 4.51-6.11l1.72-2.25 3.88-0.06c2.56-0.04 4.36-0.28 5.29-0.7 0.77-0.35 1.44-0.64 1.49-0.65 0.04 0-0.01 0.24-0.13 0.55m-55.79 4.41c0.49 0.58 0.23 3.24-0.4 4.03-0.17 0.23-0.53 1.31-0.79 2.4-0.89 3.75-1.2 4.2-2.93 4.2-1.42 0-1.52-0.08-1.27-0.9 0.16-0.5 0.37-1.35 0.48-1.9s0.34-1.36 0.52-1.8c0.17-0.44 0.52-1.31 0.77-1.92 0.25-0.62 0.45-1.48 0.45-1.91 0-2.04 2.1-3.49 3.17-2.2m-101.96 1.89c-0.448 0.74-0.815 1.46-0.816 1.6 0 0.15-0.72 0.39-1.599 0.54-2.127 0.36-2.243 0.7-0.8 2.34 1.076 1.23 1.188 1.58 0.957 3.02-0.303 1.9 0.144 2.09 1.993 0.87 1.132-0.74 1.175-0.74 2.4 0 1.948 1.19 2.248 1.02 2.248-1.29 0-1.69 0.182-2.22 1.023-3 1.255-1.16 1.034-1.59-0.989-1.94-1.224-0.2-1.664-0.51-2.041-1.42-0.844-2.04-1.458-2.22-2.376-0.72m246.68 1.46c-0.85 1.29-1.37 1.65-2.68 1.87-1.88 0.32-1.99 0.67-0.62 2.04 0.8 0.8 1 1.41 1 2.99 0 2.12 0.39 2.42 1.78 1.37 0.98-0.74 2.2-0.74 3.2 0.02 1.45 1.1 1.94 0.76 1.66-1.13-0.23-1.53-0.13-1.86 0.95-3.07 1.31-1.46 1.5-2.01 0.71-2.01-1.25-0.01-3.5-0.89-3.5-1.38 0-0.29-0.32-0.93-0.72-1.42l-0.72-0.89-1.06 1.61m67.7 52.27v49.39l-0.9 0.18c-1 0.2-8.92 1.37-11.1 1.64-0.77 0.1-3.83 0.53-6.8 0.97-5.41 0.79-12.31 1.78-22.4 3.21-6.23 0.89-14.19 2.03-22.2 3.17-3.08 0.44-8.3 1.19-11.6 1.65-3.3 0.47-7.53 1.1-9.4 1.4s-4.39 0.66-5.6 0.79-3.82 0.5-5.8 0.82c-3.64 0.58-8.96 1.34-16.6 2.39-4.18 0.57-8.81 1.23-16.8 2.4-10.06 1.47-12.83 1.87-16.6 2.38-4.96 0.68-11.6 1.62-18.4 2.61-4.92 0.72-9.37 1.36-22.4 3.23-12.83 1.83-16.7 2.38-22.4 3.18-3.3 0.46-7.03 1.02-8.29 1.24s-4.23 0.65-6.6 0.95c-4.38 0.57-9.9 1.34-17.11 2.41-9.32 1.38-14.98 2.2-17.8 2.57-3.1 0.42-8.31 1.16-15.6 2.23-8.07 1.18-12.63 1.83-16.794 2.4-4.067 0.55-6.301 0.87-18.2 2.6-6.734 0.98-14.296 2.06-22.4 3.2-3.3 0.47-7.62 1.1-9.6 1.42-1.98 0.31-4.95 0.74-6.6 0.95-4.572 0.56-11.81 1.59-15.6 2.22-1.87 0.3-4.48 0.67-5.8 0.81-1.32 0.15-3.815 0.52-5.544 0.83s-3.664 0.57-4.3 0.57h-1.156v-49.36-49.35l0.9-0.23c0.495-0.12 2.97-0.51 5.5-0.86s6.94-0.98 9.8-1.4 7.72-1.12 10.8-1.56c8.608-1.23 16.228-2.31 22.6-3.23 3.19-0.46 8.23-1.18 11.2-1.6s7.92-1.13 11-1.57 8.3-1.18 11.6-1.64c3.3-0.47 7.614-1.11 9.594-1.42 1.98-0.32 4.95-0.74 6.6-0.95 3.34-0.41 9.73-1.32 15.8-2.24 4.82-0.74 10.91-1.62 16.6-2.39 4.17-0.57 8.73-1.22 16.8-2.4 7.29-1.07 12.5-1.81 15.6-2.23 1.65-0.22 5.34-0.74 8.2-1.16s7.72-1.13 10.8-1.57 8.21-1.17 11.4-1.63 8.23-1.18 11.2-1.6 7.92-1.13 11-1.57 8.3-1.18 11.6-1.64c3.3-0.47 7.53-1.09 9.4-1.4 1.87-0.3 4.48-0.66 5.8-0.8s3.3-0.43 4.4-0.63c1.1-0.22 3.98-0.64 6.4-0.95 4.89-0.63 11.15-1.52 17.2-2.44 5.23-0.79 11.42-1.69 16.4-2.37 4.97-0.67 11.61-1.62 18.4-2.61 2.86-0.42 7.72-1.12 10.8-1.56s8.21-1.17 11.4-1.63c3.19-0.45 7.69-1.09 10-1.41 2.31-0.33 7.26-1.03 11-1.57s9.5-1.37 12.8-1.84c3.3-0.48 8.07-1.19 10.6-1.59s5.19-0.74 5.9-0.76l1.3-0.04v49.39m-7-44.95c-1.32 0.19-4.83 0.71-7.8 1.14-2.97 0.44-7.96 1.15-11.1 1.6-8.46 1.19-16.41 2.33-22.7 3.24-7.96 1.15-21.92 3.15-33.2 4.75-5.18 0.74-8.39 1.2-22.4 3.22-2.86 0.42-7.9 1.14-11.2 1.61-6.76 0.96-14.23 2.03-22.2 3.18-2.97 0.43-8.1 1.16-11.4 1.62-3.3 0.47-8.34 1.19-11.2 1.61s-7.72 1.12-10.8 1.56-8.16 1.16-11.3 1.61c-3.13 0.45-8.26 1.19-11.4 1.63-3.13 0.45-8.22 1.18-11.3 1.62s-8.07 1.16-11.1 1.59c-3.02 0.44-8.02 1.15-11.1 1.59s-8.16 1.17-11.3 1.62c-3.13 0.44-8.04 1.15-10.9 1.56-2.86 0.42-7.9 1.14-11.2 1.61s-8.34 1.19-11.2 1.61c-2.86 0.41-7.81 1.12-11 1.58-3.19 0.45-8.314 1.18-11.394 1.63-6.923 1-14.603 2.1-22.2 3.17-3.19 0.45-8.275 1.18-11.3 1.61-3.025 0.44-7.975 1.15-11 1.58s-8.11 1.16-11.3 1.62-8.32 1.19-11.4 1.63c-7.832 1.12-13.442 1.96-14.5 2.19l-0.9 0.19v45.8 45.8l1.7-0.23c0.935-0.12 4.04-0.56 6.9-0.98 4.896-0.72 9.013-1.31 22.4-3.22 3.08-0.43 8.075-1.15 11.1-1.59s7.975-1.14 11-1.58c3.025-0.43 8.065-1.15 11.2-1.6 3.135-0.44 8.175-1.16 11.2-1.6 3.025-0.43 8.065-1.15 11.2-1.6 3.134-0.44 8.264-1.18 11.394-1.63 7.43-1.06 15.62-2.24 22.1-3.18 2.86-0.41 7.9-1.13 11.2-1.6s8.34-1.19 11.2-1.6 7.9-1.13 11.2-1.6c7.64-1.09 15.34-2.19 22.2-3.19 5.84-0.85 13.83-1.99 22.4-3.21 2.97-0.42 8.01-1.14 11.2-1.6s8.32-1.19 11.4-1.64c3.08-0.44 8.08-1.15 11.1-1.59 3.02-0.43 8.02-1.15 11.1-1.59s8.16-1.16 11.3-1.61 8.04-1.15 10.9-1.57c2.86-0.41 7.9-1.13 11.2-1.6s8.34-1.19 11.2-1.61c4.96-0.72 9.89-1.43 22.4-3.21 3.08-0.43 8.03-1.14 11-1.57s7.92-1.14 11-1.58 8.12-1.16 11.2-1.6 8.3-1.19 11.6-1.66c3.3-0.46 8.19-1.19 10.86-1.61 2.68-0.42 5.33-0.76 5.9-0.76h1.04v-46c0-25.3-0.13-45.98-0.3-45.95-0.16 0.02-1.38 0.2-2.7 0.39m-18.6 15.6c3.31 1.99 4.41 4.3 4.4 9.23-0.01 5.12-0.17 5.45-2.75 5.72-1.23 0.13-2.94 0.32-3.79 0.43l-1.55 0.2 0.15-4.11 0.14-4.11-2.03-0.12c-2.98-0.17-2.87-0.68-3.19 14.36-0.34 15.49-0.74 14.1 4.15 14.19 2.71 0.05 3.54 0.22 4.48 0.91 0.64 0.47 1.3 0.86 1.48 0.86 1.64 0.02 2.48 16.67 1.07 21.34-1.8 5.94-9.48 10.18-14.43 7.96-1.67-0.75-3.73-2.24-3.73-2.7 0-0.15-0.36-0.73-0.8-1.29-1.29-1.65-1.21-10.81 0.1-11.08 0.5-0.1 1.89-0.39 3.1-0.63 1.21-0.25 2.6-0.53 3.09-0.63 0.87-0.18 0.89-0.1 1 4.52l0.11 4.71 1.35 0.13c2.95 0.28 3.25-0.59 3.25-9.26v-7.58l-2.16 0.25c-4.16 0.49-8.19-1.45-9.46-4.54-0.71-1.72-0.62-27.65 0.1-31.07 1.2-5.7 11.2-10.53 15.92-7.69m-295.41 2.25c-0.437 2-0.558 2.16-2.169 2.83-1.942 0.82-1.953 0.91-0.253 2.21 1.062 0.81 1.411 1.42 1.625 2.85 0.317 2.11 0.341 2.12 1.873 0.83 1.009-0.85 1.431-0.95 3.157-0.74 2.194 0.26 2.293 0.13 1.44-1.9-0.494-1.18-0.473-1.44 0.199-2.54 1.216-2 1.025-2.38-1.046-2.1-0.99 0.14-1.8 0.1-1.8-0.09 0-0.49-1.895-2.45-2.373-2.45-0.227 0-0.52 0.5-0.653 1.1m263.67 28.4c-0.14 15.13-0.37 28.63-0.5 30l-0.24 2.5 1.95-0.02c1.07 0 3.7-0.34 5.85-0.74l3.9-0.73v1.49c0 0.82-0.12 2.59-0.26 3.94l-0.26 2.46h-1.4c-0.78 0-3.41 0.35-5.85 0.77-4.97 0.86-11.5 1.73-11.58 1.55-0.03-0.06 0.06-7.41 0.19-16.32 0.14-8.91 0.27-24.16 0.3-33.9l0.06-17.7 1.9-0.04c1.04-0.03 2.44-0.19 3.1-0.36 0.66-0.16 1.63-0.32 2.15-0.35l0.96-0.05-0.27 27.5m-18.62-23.84c2.04 0.61 4.13 2.58 4.92 4.64 0.75 1.96 0.23 51.51-0.58 55.6-1.81 9.11-18.8 10.28-20.19 1.4-0.28-1.81 0.53-51.29 0.87-53.35 0.92-5.49 9.14-10.04 14.98-8.29m-26.87 3.53c2.14 0.41 2.5 0.62 4.43 2.59 2.03 2.06 2.05 2.44 1.58 31.29-0.47 29.6-0.36 28.45-3.14 30.73-6.37 5.22-16 4.23-17.63-1.8-0.59-2.22 0.22-52.94 0.88-54.86 0.73-2.1 2.26-4.19 3.86-5.24 3.09-2.04 3.81-2.39 5.61-2.69 1.02-0.17 1.97-0.33 2.1-0.36 0.14-0.03 1.18 0.13 2.31 0.34m-18.35 3.35c0 0.74-0.12 2.43-0.26 3.76l-0.25 2.41-2.89 0.47-2.89 0.46-0.26 23.68c-0.15 13.03-0.37 26.58-0.51 30.13l-0.25 6.44-3.79 0.68c-2.09 0.37-3.87 0.6-3.96 0.51-0.09-0.08 0.05-13.6 0.3-30.03 0.26-16.43 0.36-29.98 0.23-30.1-0.13-0.13-1.19-0.03-2.35 0.23-4.42 0.98-3.92 1.36-3.92-3.08v-3.92l3.3-0.48c3.93-0.57 7.23-1.07 12.1-1.84 5.51-0.86 5.4-0.88 5.4 0.68m38.86 0.96c-1.19 1.01-2.09 51.08-0.94 51.98 0.76 0.6 2.79 0.38 3.56-0.39 0.7-0.69 1.55-50.93 0.88-51.74-0.64-0.76-2.51-0.68-3.5 0.15m-26.16 3.8c-0.76 0.59-1.77 50.24-1.05 51.6 0.44 0.83 2.65 0.95 3.67 0.2 0.69-0.5 1.92-50.86 1.27-51.91-0.35-0.56-3.12-0.48-3.89 0.11m-63.51 23.92c-0.21 12.42-0.38 25.98-0.38 30.13l-0.01 7.55 1.3-0.27c0.71-0.15 2.92-0.45 4.9-0.65 1.98-0.22 3.91-0.49 4.3-0.61 0.63-0.2 0.7 0.14 0.7 3.53v3.75l-4.7 0.69c-2.59 0.38-6.84 1.06-9.46 1.5-2.61 0.44-4.84 0.7-4.95 0.59-0.12-0.12 0-14.39 0.25-31.72 0.26-17.33 0.46-32.54 0.46-33.8 0-2.1 0.08-2.31 0.98-2.54 0.87-0.22 6.68-0.86 6.9-0.76 0.05 0.02-0.08 10.19-0.29 22.61m-17.13-18.37c0.58 0.41 1.2 0.75 1.36 0.75 0.82 0 2.51 2.59 2.7 4.13 0.12 0.92 0.09 14.89-0.05 31.05l-0.27 29.38-2.6 0.5c-1.43 0.27-3.19 0.5-3.9 0.52l-1.3 0.02v-12.42c0-11.65-0.05-12.42-0.7-12.23-0.39 0.11-1.47 0.31-2.4 0.46l-1.7 0.26v12.36 12.36l-0.93 0.23c-0.51 0.13-2.31 0.37-4 0.53l-3.07 0.29v-12.3-12.3l-2 0.24-2 0.23v-3.84-3.84l1.94-0.26 1.95-0.26 0.2-13.85c0.22-15.81 0.29-16.18 3.47-19.19 3.98-3.75 10.14-5.05 13.3-2.82m-31.51 3.63c4.51 1.31 5.85 3.66 5.85 10.3 0 4.66-0.03 4.81-0.9 5.01-3.42 0.78-4.64 0.99-5.63 1l-1.13 0.01 0.1-4.12c0.11-4.73-0.02-5.08-1.79-5.08-2.73 0-2.55-1.68-2.86 26.62-0.31 28.67-0.45 27.13 2.39 26.19 1.95-0.65 2.22-1.35 2.22-5.93v-3.96l2.1-0.25c1.15-0.14 2.86-0.37 3.8-0.51l1.7-0.26v4.02c0 9.56-4.25 14.48-12.48 14.48-8.37 0-8.05 1.44-7.62-33.8l0.32-26.4 0.96-1.6c2.8-4.69 8.24-7.09 12.97-5.72m-18.86 30.87c-0.05 15.9-0.21 31.09-0.34 33.78l-0.24 4.87-1.86 0.4c-1.02 0.22-2.77 0.52-3.87 0.66l-2.02 0.27 0.12-31.54c0.07-17.35 0.22-32.64 0.34-33.98l0.22-2.44 2.28-0.4c1.25-0.22 2.99-0.43 3.87-0.46l1.6-0.06-0.1 28.9m42.66-27.43c-0.7 0.18-1.16 8.6-1.16 21.23v6.1h2.35 2.35l0.3-13.36c0.34-15.43 0.42-15.12-3.84-13.97m-55.16 4.08v3.94l-2.81 0.2c-1.55 0.12-2.89 0.28-2.98 0.37-0.16 0.16-1.01 47.27-1.01 55.97v4.23l-3.86 0.68c-2.12 0.37-3.95 0.59-4.06 0.47-0.12-0.11-0.02-13.66 0.21-30.11 0.24-16.44 0.37-29.96 0.3-30.03-0.12-0.13-4.04 0.57-5.49 0.99-0.63 0.17-0.7-0.18-0.7-3.62 0-3.64 0.04-3.83 0.9-4.01 4.11-0.86 7.63-1.43 8.94-1.45 0.86-0.02 3.18-0.36 5.16-0.76 5.88-1.19 5.4-1.47 5.4 3.13m-25.42 24.55c-0.17 13.69-0.41 29.04-0.55 34.1l-0.25 9.2-2.91 0.26c-1.61 0.14-3.39 0.38-3.97 0.52l-1.04 0.26 0.26-17.02c0.14-9.36 0.38-24.65 0.52-33.96l0.26-16.94 3.64-0.61c2-0.34 3.8-0.63 3.99-0.66 0.2-0.03 0.22 10.59 0.05 24.85m-23.947 0.6c-0.142 12.04-0.37 25.54-0.507 30l-0.249 8.1h1.953c1.074 0 3.483-0.27 5.353-0.6s3.535-0.6 3.7-0.6 0.3 1.67 0.3 3.71v3.71l-3.3 0.48c-1.815 0.26-4.47 0.65-5.9 0.87s-4.287 0.64-6.349 0.95l-3.748 0.56 0.243-7.04c0.134-3.87 0.339-16.85 0.454-28.84 0.116-11.99 0.317-24.19 0.446-27.1l0.236-5.3 1.659-0.03c0.912-0.01 2.379-0.17 3.259-0.35s1.849-0.35 2.154-0.38c0.47-0.04 0.515 3.32 0.296 21.86m-18.85-18.26c2.391 0.6 5.125 3.36 5.401 5.44 0.729 5.52-0.239 54.36-1.114 56.18-3.238 6.76-16.07 8.57-19.104 2.7-1.146-2.21-0.671-54.7 0.517-57.16 2.615-5.43 8.832-8.54 14.3-7.16m-22.342 4.57c2.412 1.84 2.355 1.37 2.212 18.39-0.171 20.52-0.912 22.08-11.163 23.63l-1.695 0.26-0.105 12.44-0.106 12.44-1.6 0.27c-0.88 0.14-2.635 0.34-3.9 0.44l-2.3 0.18v-12.27-12.28l-1.9 0.19-1.9 0.18 0.127-3.83 0.127-3.83 1.973-0.27 1.973-0.26 0.049-12.05c0.027-6.62 0.162-14.56 0.3-17.64l0.251-5.6 2.8-0.51c8.188-1.52 12.751-1.48 14.857 0.12m16.507 3.18c-1.036 0.56-1.037 0.57-1.299 7.48-0.568 14.99-0.326 44.62 0.368 44.88 1.105 0.43 2.34 0.25 3.241-0.46l0.874-0.69 0.101-25.42c0.056-13.98-0.033-25.63-0.197-25.9-0.395-0.64-1.801-0.59-3.088 0.11m-26.064 3.67c-0.649 0.17-0.7 1.17-0.7 13.77v13.6l2.1-0.12 2.1-0.12 0.299-13.2c0.354-15.64 0.514-15.06-3.799-13.92m203.97 22.02c4.71 4.27-2.17 11.96-7.04 7.86-1.6-1.35-1.76-4.53-0.32-6.16 2.74-3.08 5.21-3.65 7.36-1.7m83.48 16.8c-0.6 1.04-1.27 2.14-1.5 2.44-0.43 0.56-0.62 0.87-2.15 3.5-1.3 2.23-1.87 3.13-2.13 3.36-0.12 0.1-0.83 1.1-1.57 2.2-5.89 8.71-21.8 25.4-29.2 30.62-0.99 0.7-1.98 1.47-2.21 1.72-0.22 0.25-0.69 0.64-1.04 0.86-1.64 1.04-5.37 3.62-5.55 3.84-0.17 0.22-5.12 3.25-9.51 5.84-1.93 1.14-11.13 5.75-12.69 6.36-0.66 0.26-2.14 0.85-3.3 1.31-4.7 1.89-6.45 2.54-9.7 3.61-24.82 8.15-51.07 9.38-77 3.58-6.44-1.43-16.45-4.55-20.51-6.38-0.94-0.42-1.88-0.76-2.09-0.76-0.74 0-13.46-6.17-16.53-8.02-0.7-0.42-1.9-1.13-2.67-1.58-3.42-1.99-9.89-6.33-12.8-8.58-1.43-1.11-2.84-2.2-3.13-2.42s-0.82-0.72-1.19-1.1c-0.36-0.39-0.77-0.7-0.92-0.7-0.3 0-3.71-3.02-7.53-6.66l-2.57-2.45 2.57-0.25c1.41-0.15 4.91-0.61 7.77-1.03 2.86-0.43 7.9-1.16 11.2-1.63 3.3-0.46 8.25-1.18 11-1.6 7.71-1.15 8.68-1.19 9.71-0.39 1.46 1.13 8.33 4.76 13.09 6.91 4.41 2 5.13 2.3 5.55 2.3 0.24 0 1.2 0.34 2.14 0.75 11.72 5.19 33.92 7.95 50.21 6.25 8.4-0.88 21.48-3.6 24.14-5.02 0.39-0.21 1-0.38 1.35-0.38 0.36 0 1.4-0.36 2.3-0.8 0.92-0.44 1.85-0.81 2.09-0.82 0.23-0.01 1.14-0.36 2.02-0.78 0.88-0.43 1.75-0.78 1.92-0.79 0.49-0.02 8.57-4.08 11.62-5.84 4.62-2.67 7.16-4.22 7.46-4.55 0.11-0.12 1.1-0.84 2.2-1.59 4.28-2.93 9.81-7.65 14.6-12.47l5-5.04 3.4-0.48c1.87-0.27 5.92-0.85 9-1.29s8.03-1.15 11-1.57 7.47-1.1 10-1.52 5.19-0.78 5.92-0.81l1.31-0.05-1.08 1.9m-53.27 6.8c-3.48 3.32-12.8 10.5-13.65 10.5-0.18 0-0.54 0.24-0.79 0.55-1.1 1.32-13.85 7.94-18.93 9.83-9.74 3.6-14.98 4.98-24.53 6.42-12.73 1.93-32.11 0.54-43.38-3.1-0.99-0.32-2.34-0.73-3-0.9-3.76-1.01-16.2-6.23-16.2-6.8 0-0.16 1.67-0.51 3.7-0.77 2.04-0.27 5.95-0.82 8.7-1.24 2.75-0.41 7.7-1.13 11-1.6 3.3-0.46 8.34-1.18 11.2-1.59 2.86-0.42 7.9-1.14 11.2-1.6 3.3-0.47 8.34-1.19 11.2-1.6 2.86-0.42 7.9-1.14 11.2-1.6 3.3-0.47 8.34-1.19 11.2-1.6 2.86-0.42 7.9-1.14 11.2-1.6 3.3-0.47 8.34-1.2 11.2-1.62 11.73-1.72 16.46-2.4 17.6-2.53 0.66-0.07 1.43-0.16 1.71-0.19 0.29-0.04 0 0.43-0.63 1.04m21.9 5.01c-0.47 1.37-0.9 1.83-2.28 2.45-2.05 0.93-2.06 0.99-0.31 2.17 1.1 0.76 1.43 1.29 1.64 2.7 0.3 2.03 0.8 2.19 2.48 0.78 1.04-0.88 1.33-0.94 2.67-0.57 1.89 0.52 1.99 0.4 1.38-1.62-0.45-1.51-0.42-1.75 0.41-2.86 1.23-1.68 0.88-2.35-1.08-2.09-1.3 0.18-1.69 0.06-2.33-0.73-1.64-2.03-1.95-2.05-2.58-0.23m-171.65 16.34c-0.33 0.52-0.7 1.23-0.83 1.58-0.13 0.36-1.07 0.86-2.08 1.11-2.02 0.51-2.06 0.99-0.24 2.64 0.75 0.67 0.83 1.05 0.6 2.71l-0.27 1.93 1.77-0.86 1.77-0.86 1.67 0.85 1.67 0.86v-2.05c0-1.61 0.22-2.31 1-3.25 1.22-1.44 1.07-1.77-0.98-2.12-0.95-0.16-1.67-0.53-1.81-0.93-0.12-0.37-0.55-1.09-0.94-1.61l-0.73-0.93-0.6 0.93m152.23 1.38c-1.46 1.97-1.72 2.15-3.06 2.15-1.4 0.01-1.44 0.84-0.11 2.17 0.87 0.87 0.96 1.23 0.75 2.82-0.28 2.05-0.11 2.15 2.11 1.23 0.88-0.37 1.67-0.47 2.08-0.26 2.23 1.14 2.75 0.94 2.47-0.94-0.25-1.65-0.17-1.88 1.05-3.06 1.47-1.43 1.42-1.95-0.19-1.95-1.23 0-2.86-0.99-2.86-1.75 0-1.77-1.07-1.97-2.24-0.41m-130.12 13.35c-0.37 1.25-0.83 1.78-2.06 2.41-1.45 0.74-2.11 1.59-1.23 1.59 1.05 0 2.84 2.38 2.84 3.76 0 1.72-0.02 1.71 1.85 0.44 0.82-0.56 1.77-0.92 2.12-0.82 2.54 0.75 2.93 0.74 2.71-0.02-0.74-2.59-0.72-3.41 0.09-4.79 1.1-1.87 1.12-1.85-1.01-1.71-1.65 0.1-1.98-0.03-3-1.17-1.47-1.66-1.73-1.62-2.31 0.31m107.27 0.2c-1 1.26-1.32 1.4-3.05 1.4h-1.93l0.88 1.43c0.77 1.24 0.83 1.67 0.5 3.33l-0.37 1.9 2.09-0.18c1.76-0.14 2.21-0.04 2.82 0.68 0.94 1.1 1.74 1.08 1.75-0.06 0.01-1.69 0.44-2.51 1.82-3.46 1.41-0.96 1.83-2.04 0.79-2.04-1.48 0-2.55-0.93-3.03-2.64-0.59-2.12-0.83-2.16-2.27-0.36m-82.12 8.75c0 1.61-0.13 1.83-1.67 2.85-1.79 1.19-1.59 1.87 0.74 2.46 0.56 0.14 1.14 0.87 1.63 2.08l0.78 1.86 1.22-1.3c1.04-1.1 1.51-1.3 3.06-1.3 2.07 0 2.17-0.2 1.06-2.07-0.65-1.12-0.71-1.6-0.38-3.08 0.48-2.14 0.39-2.25-1.38-1.67-1.25 0.42-1.57 0.36-3.02-0.56-2.08-1.31-2.04-1.32-2.04 0.73m56.96-0.36c-1.1 0.87-1.41 0.93-2.74 0.57-1.87-0.52-1.93-0.45-1.45 1.69 0.33 1.48 0.27 1.96-0.39 3.08-1.14 1.94-1.02 2.21 0.87 1.91 1.53-0.24 1.76-0.15 3.08 1.21 1.56 1.61 1.45 1.66 2.46-1.15 0.27-0.74 0.92-1.31 2.01-1.74 1.99-0.8 1.99-0.96 0.02-2.18-1.45-0.89-1.59-1.13-1.6-2.68-0.02-1.98-0.46-2.12-2.26-0.71m-30.74 3.95c0.23 1.57 0.14 1.85-0.98 2.97-1.63 1.63-1.56 2.09 0.34 2.09 1.54 0 3.22 1.44 3.22 2.76 0 0.25 0.36 0.44 0.8 0.44s0.8-0.19 0.8-0.44c0-1.32 1.69-2.76 3.23-2.76 1.9 0 1.9-0.04 0.32-2-1.1-1.37-1.22-1.76-0.99-3.18 0.29-1.82 0.15-1.89-2.07-1-1.38 0.55-1.66 0.55-2.71 0-1.95-1.02-2.26-0.84-1.96 1.12"/>
  <path id="path1" fill="#1e1e1e" d="m389.79 166.2c0 27.28 0.05 38.38 0.11 24.67 0.05-13.71 0.05-36.03 0-49.6-0.06-13.57-0.11-2.35-0.11 24.93"/>
  <path id="path2" fill="#333" d="m386.19 166.8c0 25.41 0.05 35.8 0.11 23.1s0.06-33.5 0-46.2-0.11-2.31-0.11 23.1m-376.4 53.6c0 27.17 0.048 38.28 0.106 24.7s0.058-35.82 0-49.4-0.106-2.47-0.106 24.7m326.31-0.52c0.38 0.1 1.02 0.1 1.4 0s0.07-0.18-0.7-0.18-1.08 0.08-0.7 0.18m-11.2 1.6c0.38 0.1 1.02 0.1 1.4 0s0.07-0.18-0.7-0.18-1.08 0.08-0.7 0.18"/>
  <path id="path3" fill="#bebebe" d="m389.1 166.4c-0.06 27.06 0.03 49.2 0.2 49.2 0.16 0 0.3-22.14 0.3-49.2s-0.09-49.2-0.2-49.2-0.24 22.14-0.3 49.2m-39-43.72c0.38 0.1 1.02 0.1 1.4 0s0.07-0.18-0.7-0.18-1.08 0.08-0.7 0.18m-11.2 1.6c0.38 0.1 1.02 0.1 1.4 0s0.07-0.18-0.7-0.18-1.08 0.08-0.7 0.18m-65.6 12.4c0.38 0.1 1.02 0.1 1.4 0s0.07-0.18-0.7-0.18-1.08 0.08-0.7 0.18m-11.2 1.6c0.38 0.1 1.02 0.1 1.4 0s0.07-0.18-0.7-0.18-1.08 0.08-0.7 0.18m-11.2 1.6c0.38 0.1 1.02 0.1 1.4 0s0.07-0.18-0.7-0.18-1.08 0.08-0.7 0.18m-122.8 17.6c0.38 0.1 1.02 0.1 1.4 0s0.07-0.18-0.7-0.18-1.08 0.08-0.7 0.18m-11.2 1.6c0.38 0.1 1.02 0.1 1.4 0s0.07-0.18-0.7-0.18-1.08 0.08-0.7 0.18m241.2 60.8c0.38 0.1 1.02 0.1 1.4 0s0.07-0.18-0.7-0.18-1.08 0.08-0.7 0.18m-57.2 5.2c0.38 0.1 1.02 0.1 1.4 0s0.07-0.18-0.7-0.18-1.08 0.08-0.7 0.18m-11.2 1.6c0.38 0.1 1.02 0.1 1.4 0s0.07-0.18-0.7-0.18-1.08 0.08-0.7 0.18m-76.8 14c0.38 0.1 1.02 0.1 1.4 0s0.07-0.18-0.7-0.18-1.08 0.08-0.7 0.18m-11.2 1.6c0.38 0.1 1.02 0.1 1.4 0s0.07-0.18-0.7-0.18-1.08 0.08-0.7 0.18m-34.8 2c0.38 0.1 1.02 0.1 1.4 0s0.07-0.18-0.7-0.18-1.08 0.08-0.7 0.18m-11.2 1.6c0.38 0.1 1.02 0.1 1.4 0s0.07-0.18-0.7-0.18-1.08 0.08-0.7 0.18m-11.2 1.6c0.38 0.1 1.02 0.1 1.4 0s0.07-0.18-0.7-0.18-1.08 0.08-0.7 0.18m-11.2 1.6c0.38 0.1 1.02 0.1 1.4 0s0.07-0.18-0.7-0.18-1.08 0.08-0.7 0.18m-54.4 10.8c0.385 0.1 1.015 0.1 1.4 0s0.07-0.18-0.7-0.18-1.085 0.08-0.7 0.18m-46 3.6c0.385 0.1 1.015 0.1 1.4 0s0.07-0.18-0.7-0.18-1.085 0.08-0.7 0.18m-11.2 1.6c0.385 0.1 1.015 0.1 1.4 0s0.07-0.18-0.7-0.18-1.085 0.08-0.7 0.18"/>
  <path id="path4" fill="#fff" d="m385.8 117.65c-3.3 0.48-12.04 1.74-19 2.73-3.19 0.46-8.23 1.19-11.2 1.62-2.97 0.44-7.92 1.15-11 1.59-7.07 1-15.16 2.16-22.6 3.23-7.38 1.06-15.52 2.22-22.4 3.2-6.88 0.97-15.02 2.14-22.4 3.2-3.19 0.45-8.32 1.19-11.4 1.63-5.34 0.76-8.58 1.22-21.8 3.13-3.19 0.46-8.23 1.18-11.2 1.61-5.5 0.78-12.02 1.72-22.4 3.22-5.93 0.86-12.81 1.84-22.4 3.21-2.97 0.42-7.96 1.13-11.1 1.58-3.13 0.45-8.22 1.18-11.3 1.62s-8.12 1.16-11.2 1.6-8.16 1.16-11.3 1.61c-5.37 0.77-9.07 1.3-22.5 3.22-3.08 0.44-7.94 1.14-10.8 1.55-2.86 0.42-7.72 1.12-10.8 1.56s-8.12 1.16-11.2 1.6-8.21 1.17-11.4 1.62c-3.19 0.46-8.275 1.19-11.3 1.63-3.025 0.43-7.975 1.15-11 1.59-7.273 1.05-15.811 2.27-22.7 3.24-3.08 0.43-8.03 1.14-11 1.58-2.97 0.43-6.48 0.92-7.8 1.09l-2.4 0.3-0.102 49.12-0.101 49.12 1.901-0.24c1.938-0.25 8.955-1.25 18.302-2.61 2.86-0.41 7.72-1.11 10.8-1.55 9.34-1.34 24.074-3.45 33.6-4.82 3.08-0.45 8.12-1.17 11.2-1.61s8.12-1.16 11.2-1.6 8.12-1.16 11.2-1.6 8.12-1.16 11.2-1.6 8.21-1.18 11.4-1.63c3.19-0.46 8.23-1.18 11.2-1.6 7.79-1.11 16.22-2.32 22.2-3.19 6.02-0.87 14.42-2.08 22.4-3.21 5.91-0.84 12.74-1.83 22-3.17 3.08-0.44 8.12-1.16 11.2-1.6s8.12-1.17 11.2-1.61c6.82-0.99 24.67-3.54 26.6-3.8 1.48-0.2 8.7-1.23 18.4-2.62 5.42-0.78 8.22-1.18 22.6-3.23 3.08-0.44 7.94-1.14 10.8-1.56 7.28-1.05 20.3-2.92 33.6-4.81 6.18-0.88 14.04-2.01 22-3.17 2.86-0.42 7.99-1.15 11.4-1.62 3.41-0.48 7.64-1.08 9.4-1.34l3.2-0.47 0.1-49.1c0.08-39.16 0-49.08-0.4-49.04-0.27 0.03-1.58 0.21-2.9 0.4m0.6 48.93c0 43.63-0.04 46.18-0.7 46.37-0.38 0.11-2.14 0.4-3.9 0.64-3.03 0.42-6.62 0.93-19.9 2.83-3.14 0.44-8.04 1.16-10.9 1.6-2.86 0.43-6.01 0.87-7 0.98s-3.6 0.46-5.8 0.78c-5.99 0.88-14.49 2.11-21 3.04-3.19 0.45-8.14 1.16-11 1.57-5.54 0.81-13.16 1.9-22.1 3.19-3.03 0.43-8.11 1.16-11.3 1.62s-8.23 1.18-11.2 1.6-8.01 1.14-11.2 1.6-8.32 1.2-11.4 1.64-8.03 1.14-11 1.57c-5.79 0.84-13.71 1.97-22.4 3.21-10.09 1.43-16.99 2.42-22.4 3.22-2.97 0.43-6.12 0.88-7 0.99-0.88 0.12-3.31 0.47-5.4 0.78s-6.5 0.95-9.8 1.41-8.25 1.19-11 1.61-5.99 0.87-7.2 1-3.64 0.49-5.4 0.79c-1.76 0.29-4.28 0.65-5.6 0.78s-3.84 0.49-5.6 0.8-4.28 0.67-5.6 0.81-3.21 0.41-4.2 0.59c-0.99 0.19-3.33 0.54-5.2 0.78s-5.2 0.7-7.4 1.02c-3.917 0.56-9.884 1.41-20.9 2.99-3.025 0.43-8.65 1.25-12.5 1.81s-8.98 1.29-11.4 1.63c-4.807 0.66-12.48 1.75-21.2 3.01-3.08 0.44-8.03 1.16-11 1.58s-7.192 1.03-9.383 1.36c-2.19 0.32-4.065 0.51-4.167 0.4-0.287-0.28-0.21-91.6 0.078-92.06 0.14-0.23 2.013-0.63 4.163-0.9s5.439-0.73 7.309-1.04c1.87-0.3 4.3-0.64 5.4-0.75 1.1-0.12 3.8-0.48 6-0.81 2.2-0.32 6.61-0.96 9.8-1.42 3.19-0.45 8.23-1.19 11.2-1.63s6.03-0.87 6.8-0.97c0.77-0.09 3.29-0.44 5.6-0.77 10.164-1.45 15.86-2.27 22.4-3.22 3.85-0.57 8.89-1.29 11.2-1.62s6.09-0.88 8.4-1.23c2.31-0.34 5.64-0.79 7.4-1s4.64-0.63 6.4-0.94c1.76-0.32 4.19-0.68 5.4-0.81 1.21-0.14 3.91-0.5 6-0.82 2.09-0.31 6.32-0.92 9.4-1.36s8.21-1.17 11.4-1.63 8.28-1.18 11.3-1.61 8.02-1.15 11.1-1.59 8.12-1.16 11.2-1.6 8.08-1.16 11.1-1.59c13.98-2.03 19.81-2.86 23.7-3.41 9.45-1.32 16.07-2.27 20.8-3 2.75-0.42 5.9-0.87 7-1 1.1-0.14 3.71-0.5 5.8-0.81 2.09-0.3 6.37-0.92 9.5-1.37 3.14-0.44 8.27-1.17 11.4-1.62 3.14-0.45 8.13-1.16 11.1-1.59 8.34-1.19 16.26-2.33 22.3-3.2 3.02-0.44 8.11-1.16 11.3-1.61s8.23-1.18 11.2-1.62c2.97-0.45 6.03-0.88 6.8-0.98 0.77-0.09 3.2-0.43 5.4-0.76 2.2-0.32 6.79-0.97 10.2-1.44 3.41-0.48 8.36-1.2 11-1.61s5.88-0.86 7.2-0.99c1.32-0.14 3.57-0.49 5-0.78s3-0.54 3.5-0.57l0.9-0.05v46.18"/>
 </g>
</svg>
